<mxfile host="app.diagrams.net" modified="2024-06-27T22:18:32.203Z" agent="Mozilla/5.0 (Windows NT 10.0; Win64; x64) AppleWebKit/537.36 (KHTML, like Gecko) Chrome/123.0.0.0 Safari/537.36" etag="Hvs0gzWLVLcO5CvCDZKC" version="24.6.4" type="device">
  <diagram name="PÃ¡gina-1" id="X7rqESTbDn_pkP6PnE5y">
    <mxGraphModel dx="1687" dy="2087" grid="1" gridSize="10" guides="1" tooltips="1" connect="1" arrows="1" fold="1" page="1" pageScale="1" pageWidth="827" pageHeight="1169" math="0" shadow="0">
      <root>
        <mxCell id="0" />
        <mxCell id="1" parent="0" />
        <mxCell id="M-JIys2pxIVl-bbSwm6J-14" style="edgeStyle=orthogonalEdgeStyle;rounded=0;orthogonalLoop=1;jettySize=auto;html=1;exitX=0.5;exitY=0.5;exitDx=0;exitDy=0;exitPerimeter=0;entryX=0;entryY=0.5;entryDx=0;entryDy=0;" edge="1" parent="1" source="M-JIys2pxIVl-bbSwm6J-1" target="M-JIys2pxIVl-bbSwm6J-3">
          <mxGeometry relative="1" as="geometry" />
        </mxCell>
        <mxCell id="M-JIys2pxIVl-bbSwm6J-23" style="edgeStyle=orthogonalEdgeStyle;rounded=0;orthogonalLoop=1;jettySize=auto;html=1;exitX=0.5;exitY=0.5;exitDx=0;exitDy=0;exitPerimeter=0;entryX=0;entryY=0.5;entryDx=0;entryDy=0;" edge="1" parent="1" source="M-JIys2pxIVl-bbSwm6J-1" target="M-JIys2pxIVl-bbSwm6J-8">
          <mxGeometry relative="1" as="geometry" />
        </mxCell>
        <mxCell id="M-JIys2pxIVl-bbSwm6J-24" style="edgeStyle=orthogonalEdgeStyle;rounded=0;orthogonalLoop=1;jettySize=auto;html=1;exitX=0.5;exitY=0.5;exitDx=0;exitDy=0;exitPerimeter=0;entryX=0;entryY=0.5;entryDx=0;entryDy=0;" edge="1" parent="1" source="M-JIys2pxIVl-bbSwm6J-1" target="M-JIys2pxIVl-bbSwm6J-6">
          <mxGeometry relative="1" as="geometry" />
        </mxCell>
        <mxCell id="M-JIys2pxIVl-bbSwm6J-25" style="edgeStyle=orthogonalEdgeStyle;rounded=0;orthogonalLoop=1;jettySize=auto;html=1;exitX=0.5;exitY=0.5;exitDx=0;exitDy=0;exitPerimeter=0;entryX=0;entryY=0.5;entryDx=0;entryDy=0;" edge="1" parent="1" source="M-JIys2pxIVl-bbSwm6J-1" target="M-JIys2pxIVl-bbSwm6J-5">
          <mxGeometry relative="1" as="geometry" />
        </mxCell>
        <mxCell id="M-JIys2pxIVl-bbSwm6J-26" style="edgeStyle=orthogonalEdgeStyle;rounded=0;orthogonalLoop=1;jettySize=auto;html=1;exitX=0.5;exitY=0.5;exitDx=0;exitDy=0;exitPerimeter=0;entryX=0;entryY=0.5;entryDx=0;entryDy=0;" edge="1" parent="1" source="M-JIys2pxIVl-bbSwm6J-1" target="M-JIys2pxIVl-bbSwm6J-9">
          <mxGeometry relative="1" as="geometry" />
        </mxCell>
        <mxCell id="M-JIys2pxIVl-bbSwm6J-29" style="edgeStyle=orthogonalEdgeStyle;rounded=0;orthogonalLoop=1;jettySize=auto;html=1;exitX=0.5;exitY=0.5;exitDx=0;exitDy=0;exitPerimeter=0;entryX=0;entryY=0.5;entryDx=0;entryDy=0;" edge="1" parent="1" source="M-JIys2pxIVl-bbSwm6J-1" target="M-JIys2pxIVl-bbSwm6J-11">
          <mxGeometry relative="1" as="geometry" />
        </mxCell>
        <mxCell id="M-JIys2pxIVl-bbSwm6J-30" style="edgeStyle=orthogonalEdgeStyle;rounded=0;orthogonalLoop=1;jettySize=auto;html=1;exitX=0.5;exitY=0.5;exitDx=0;exitDy=0;exitPerimeter=0;entryX=0;entryY=0.5;entryDx=0;entryDy=0;" edge="1" parent="1" source="M-JIys2pxIVl-bbSwm6J-1" target="M-JIys2pxIVl-bbSwm6J-12">
          <mxGeometry relative="1" as="geometry" />
        </mxCell>
        <mxCell id="M-JIys2pxIVl-bbSwm6J-1" value="Professor" style="shape=umlActor;verticalLabelPosition=bottom;verticalAlign=top;html=1;outlineConnect=0;" vertex="1" parent="1">
          <mxGeometry x="120" y="210" width="90" height="170" as="geometry" />
        </mxCell>
        <mxCell id="M-JIys2pxIVl-bbSwm6J-15" style="edgeStyle=orthogonalEdgeStyle;rounded=0;orthogonalLoop=1;jettySize=auto;html=1;exitX=1;exitY=0.5;exitDx=0;exitDy=0;entryX=0;entryY=0.5;entryDx=0;entryDy=0;" edge="1" parent="1" source="M-JIys2pxIVl-bbSwm6J-3" target="M-JIys2pxIVl-bbSwm6J-4">
          <mxGeometry relative="1" as="geometry" />
        </mxCell>
        <mxCell id="M-JIys2pxIVl-bbSwm6J-3" value="Autenticar no Sistema" style="ellipse;whiteSpace=wrap;html=1;" vertex="1" parent="1">
          <mxGeometry x="360" y="320" width="150" height="100" as="geometry" />
        </mxCell>
        <mxCell id="M-JIys2pxIVl-bbSwm6J-4" value="Visualizar Tela Principal" style="ellipse;whiteSpace=wrap;html=1;" vertex="1" parent="1">
          <mxGeometry x="640" y="320" width="150" height="100" as="geometry" />
        </mxCell>
        <mxCell id="M-JIys2pxIVl-bbSwm6J-5" value="Cadastrar Turma" style="ellipse;whiteSpace=wrap;html=1;" vertex="1" parent="1">
          <mxGeometry x="360" y="485" width="150" height="100" as="geometry" />
        </mxCell>
        <mxCell id="M-JIys2pxIVl-bbSwm6J-6" value="Listar Turma" style="ellipse;whiteSpace=wrap;html=1;" vertex="1" parent="1">
          <mxGeometry x="640" y="80" width="150" height="100" as="geometry" />
        </mxCell>
        <mxCell id="M-JIys2pxIVl-bbSwm6J-8" value="Excluir Turma" style="ellipse;whiteSpace=wrap;html=1;" vertex="1" parent="1">
          <mxGeometry x="360" y="-10" width="150" height="100" as="geometry" />
        </mxCell>
        <mxCell id="M-JIys2pxIVl-bbSwm6J-27" style="edgeStyle=orthogonalEdgeStyle;rounded=0;orthogonalLoop=1;jettySize=auto;html=1;exitX=1;exitY=0.5;exitDx=0;exitDy=0;entryX=0;entryY=0.5;entryDx=0;entryDy=0;" edge="1" parent="1" source="M-JIys2pxIVl-bbSwm6J-9" target="M-JIys2pxIVl-bbSwm6J-10">
          <mxGeometry relative="1" as="geometry" />
        </mxCell>
        <mxCell id="M-JIys2pxIVl-bbSwm6J-9" value="Visualizar Turma" style="ellipse;whiteSpace=wrap;html=1;" vertex="1" parent="1">
          <mxGeometry x="880" y="245" width="150" height="100" as="geometry" />
        </mxCell>
        <mxCell id="M-JIys2pxIVl-bbSwm6J-10" value="Listar Atividades" style="ellipse;whiteSpace=wrap;html=1;" vertex="1" parent="1">
          <mxGeometry x="1190" y="245" width="150" height="100" as="geometry" />
        </mxCell>
        <mxCell id="M-JIys2pxIVl-bbSwm6J-11" value="Cadastrar Atividades" style="ellipse;whiteSpace=wrap;html=1;" vertex="1" parent="1">
          <mxGeometry x="1340" y="130" width="150" height="100" as="geometry" />
        </mxCell>
        <mxCell id="M-JIys2pxIVl-bbSwm6J-12" value="Sair do Sistema" style="ellipse;whiteSpace=wrap;html=1;" vertex="1" parent="1">
          <mxGeometry x="360" y="620" width="150" height="100" as="geometry" />
        </mxCell>
        <mxCell id="M-JIys2pxIVl-bbSwm6J-13" value="Sistema de Acompanhamento Escolar" style="rounded=0;whiteSpace=wrap;html=1;" vertex="1" parent="1">
          <mxGeometry x="80" y="30" width="190" height="90" as="geometry" />
        </mxCell>
        <mxCell id="M-JIys2pxIVl-bbSwm6J-16" value="&amp;lt;&amp;lt;Include&amp;gt;&amp;gt;" style="text;html=1;align=center;verticalAlign=middle;whiteSpace=wrap;rounded=0;" vertex="1" parent="1">
          <mxGeometry x="540" y="330" width="60" height="30" as="geometry" />
        </mxCell>
        <mxCell id="M-JIys2pxIVl-bbSwm6J-28" value="&amp;lt;&amp;lt;Include&amp;gt;&amp;gt;" style="text;html=1;align=center;verticalAlign=middle;whiteSpace=wrap;rounded=0;" vertex="1" parent="1">
          <mxGeometry x="1080" y="260" width="60" height="30" as="geometry" />
        </mxCell>
      </root>
    </mxGraphModel>
  </diagram>
</mxfile>
